<mxfile host="app.diagrams.net" agent="Mozilla/5.0 (Windows NT 10.0; Win64; x64) AppleWebKit/537.36 (KHTML, like Gecko) Chrome/131.0.0.0 Safari/537.36" version="25.0.3">
  <diagram name="Page-1" id="aRdSEQ2kwfPlVT5PL9zC">
    <mxGraphModel dx="1434" dy="746" grid="1" gridSize="10" guides="1" tooltips="1" connect="1" arrows="1" fold="1" page="1" pageScale="1" pageWidth="850" pageHeight="1100" math="0" shadow="0">
      <root>
        <mxCell id="0" />
        <mxCell id="1" parent="0" />
        <mxCell id="W4O49Ts8Ft1C6xFYEIen-9" style="edgeStyle=orthogonalEdgeStyle;rounded=0;orthogonalLoop=1;jettySize=auto;html=1;entryX=0.5;entryY=0;entryDx=0;entryDy=0;" edge="1" parent="1" source="W4O49Ts8Ft1C6xFYEIen-1" target="W4O49Ts8Ft1C6xFYEIen-3">
          <mxGeometry relative="1" as="geometry" />
        </mxCell>
        <mxCell id="W4O49Ts8Ft1C6xFYEIen-1" value="&lt;font style=&quot;font-size: 24px;&quot;&gt;start&lt;/font&gt;" style="strokeWidth=2;html=1;shape=mxgraph.flowchart.start_1;whiteSpace=wrap;" vertex="1" parent="1">
          <mxGeometry x="375" y="40" width="100" height="60" as="geometry" />
        </mxCell>
        <mxCell id="W4O49Ts8Ft1C6xFYEIen-2" value="&lt;font style=&quot;font-size: 24px;&quot;&gt;end&lt;/font&gt;" style="strokeWidth=2;html=1;shape=mxgraph.flowchart.start_1;whiteSpace=wrap;" vertex="1" parent="1">
          <mxGeometry x="375.5" y="590" width="100" height="60" as="geometry" />
        </mxCell>
        <mxCell id="W4O49Ts8Ft1C6xFYEIen-10" style="edgeStyle=orthogonalEdgeStyle;rounded=0;orthogonalLoop=1;jettySize=auto;html=1;entryX=0.5;entryY=0;entryDx=0;entryDy=0;" edge="1" parent="1" source="W4O49Ts8Ft1C6xFYEIen-3" target="W4O49Ts8Ft1C6xFYEIen-4">
          <mxGeometry relative="1" as="geometry" />
        </mxCell>
        <mxCell id="W4O49Ts8Ft1C6xFYEIen-3" value="file = fopen(a15-3.txt)" style="rounded=1;whiteSpace=wrap;html=1;absoluteArcSize=1;arcSize=14;strokeWidth=2;" vertex="1" parent="1">
          <mxGeometry x="363" y="160" width="125" height="70" as="geometry" />
        </mxCell>
        <mxCell id="W4O49Ts8Ft1C6xFYEIen-6" style="edgeStyle=orthogonalEdgeStyle;rounded=0;orthogonalLoop=1;jettySize=auto;html=1;entryX=0.5;entryY=0;entryDx=0;entryDy=0;" edge="1" parent="1" source="W4O49Ts8Ft1C6xFYEIen-4" target="W4O49Ts8Ft1C6xFYEIen-5">
          <mxGeometry relative="1" as="geometry" />
        </mxCell>
        <mxCell id="W4O49Ts8Ft1C6xFYEIen-4" value="while(name, age, gpa, gender = fscanf(file))" style="rhombus;whiteSpace=wrap;html=1;" vertex="1" parent="1">
          <mxGeometry x="318" y="300" width="215" height="140" as="geometry" />
        </mxCell>
        <mxCell id="W4O49Ts8Ft1C6xFYEIen-7" style="edgeStyle=orthogonalEdgeStyle;rounded=0;orthogonalLoop=1;jettySize=auto;html=1;entryX=1;entryY=1;entryDx=0;entryDy=0;" edge="1" parent="1" source="W4O49Ts8Ft1C6xFYEIen-5" target="W4O49Ts8Ft1C6xFYEIen-4">
          <mxGeometry relative="1" as="geometry" />
        </mxCell>
        <mxCell id="W4O49Ts8Ft1C6xFYEIen-5" value="ouput name, age, gpal, gender" style="shape=parallelogram;perimeter=parallelogramPerimeter;whiteSpace=wrap;html=1;fixedSize=1;" vertex="1" parent="1">
          <mxGeometry x="570" y="470" width="220" height="70" as="geometry" />
        </mxCell>
        <mxCell id="W4O49Ts8Ft1C6xFYEIen-8" style="edgeStyle=orthogonalEdgeStyle;rounded=0;orthogonalLoop=1;jettySize=auto;html=1;entryX=0.5;entryY=0;entryDx=0;entryDy=0;entryPerimeter=0;" edge="1" parent="1" source="W4O49Ts8Ft1C6xFYEIen-4" target="W4O49Ts8Ft1C6xFYEIen-2">
          <mxGeometry relative="1" as="geometry" />
        </mxCell>
      </root>
    </mxGraphModel>
  </diagram>
</mxfile>
